<?xml version="1.0" standalone="no"?>
<!DOCTYPE svg PUBLIC "-//W3C//DTD SVG 20010904//EN"
 "http://www.w3.org/TR/2001/REC-SVG-20010904/DTD/svg10.dtd">
<svg version="1.0" xmlns="http://www.w3.org/2000/svg"
 width="1024.000000pt" height="1024.000000pt" viewBox="0 0 1024.000000 1024.000000"
 preserveAspectRatio="xMidYMid meet">
<metadata>
Created by potrace 1.14, written by Peter Selinger 2001-2017
</metadata>
<g transform="translate(0.000000,1024.000000) scale(0.100000,-0.100000)"
fill="#000000" stroke="none">
<path d="M4265 8174 c-157 -43 -269 -145 -328 -300 -22 -58 -22 -68 -27 -664
l-5 -605 -50 -2 c-27 -1 -129 -20 -225 -42 -96 -23 -236 -55 -310 -72 -74 -16
-261 -59 -415 -94 -154 -35 -431 -98 -615 -140 -276 -63 -347 -83 -403 -112
-115 -61 -190 -172 -210 -310 -12 -80 -16 -56 87 -508 30 -132 103 -449 161
-705 58 -256 140 -613 181 -795 41 -181 83 -368 94 -415 11 -47 54 -232 95
-413 92 -407 101 -431 185 -517 96 -97 194 -135 324 -124 39 4 395 80 791 170
396 91 799 182 895 204 96 22 200 50 230 62 115 46 213 152 246 266 24 82 14
195 -35 404 -22 97 -41 184 -41 192 0 14 40 16 375 16 300 0 375 -3 375 -13 0
-7 -43 -168 -96 -357 -52 -190 -98 -374 -101 -411 -13 -151 72 -295 214 -362
32 -15 375 -115 763 -221 388 -107 757 -209 820 -226 207 -58 341 -41 448 55
56 50 111 148 135 240 15 58 90 328 342 1240 64 231 163 591 221 800 58 209
121 436 142 505 31 107 36 139 36 225 0 89 -3 106 -28 158 -33 67 -105 143
-167 174 -24 13 -343 105 -709 206 l-665 184 -6 959 c-3 597 -9 975 -16 1000
-19 79 -69 169 -123 222 -63 62 -120 95 -210 122 -66 20 -92 20 -1196 19 -917
-1 -1138 -4 -1179 -15z m2357 -69 c148 -44 261 -166 287 -310 13 -71 16 -1891
2 -1899 -4 -3 -66 11 -137 30 -179 49 -266 50 -361 4 -81 -40 -147 -104 -178
-173 -13 -29 -67 -207 -119 -397 -52 -190 -154 -559 -226 -820 -72 -261 -150
-542 -172 -625 -23 -82 -45 -156 -51 -162 -7 -10 -100 -13 -402 -13 l-393 0
-10 28 c-6 15 -41 160 -77 322 -37 162 -94 412 -126 555 -33 143 -80 348 -104
455 -92 408 -246 1088 -262 1150 -38 156 -121 263 -248 321 l-65 29 0 588 c0
644 1 650 60 742 52 82 124 137 229 175 56 21 2286 21 2353 0z m-2598 -1593
c103 -46 176 -137 204 -252 6 -25 165 -720 352 -1545 312 -1369 341 -1506 337
-1570 -2 -40 -12 -89 -24 -115 -28 -64 -102 -142 -159 -168 -42 -19 -235 -64
-1089 -257 -82 -19 -301 -69 -485 -111 -384 -89 -431 -93 -527 -49 -71 32
-143 101 -172 163 -11 26 -63 234 -115 462 -94 410 -373 1637 -527 2315 -78
342 -88 409 -74 477 11 50 50 121 89 161 70 72 96 82 422 157 1657 380 1565
360 1644 357 50 -3 92 -11 124 -25z m3062 -732 c258 -71 638 -176 844 -233
206 -57 392 -112 413 -121 52 -25 132 -116 151 -172 24 -71 20 -156 -13 -275
-16 -57 -90 -324 -165 -594 -74 -269 -183 -663 -241 -875 -120 -434 -140 -506
-254 -919 -45 -161 -88 -306 -97 -323 -28 -54 -89 -111 -149 -140 -89 -42
-144 -39 -361 21 -1303 359 -1530 424 -1570 447 -85 50 -135 136 -142 244 -4
82 -42 -62 469 1785 268 967 299 1075 313 1108 28 68 103 134 185 163 80 29
127 20 617 -116z"/>
<path d="M5109 6263 c-5 -16 -36 -95 -69 -178 -126 -323 -179 -461 -182 -475
-2 -11 6 -15 30 -15 33 0 35 2 68 84 18 45 38 89 45 97 9 11 45 14 159 14 169
0 167 1 200 -95 29 -84 45 -105 80 -105 36 0 37 5 6 83 -154 394 -191 490
-208 537 -28 74 -34 80 -79 80 -34 0 -41 -4 -50 -27z m130 -247 c34 -87 58
-162 55 -167 -3 -5 -61 -9 -130 -9 -145 0 -146 1 -114 87 83 226 105 273 122
255 3 -4 34 -78 67 -166z"/>
<path d="M5695 6210 c-64 -56 -90 -86 -90 -102 0 -37 27 -32 84 17 94 80 92
86 89 -217 l-3 -263 -70 -5 c-63 -5 -70 -7 -73 -27 l-3 -23 176 0 176 0 -3 23
c-3 19 -10 23 -63 27 l-60 5 -5 320 -5 320 -30 2 c-25 2 -46 -12 -120 -77z"/>
<path d="M3495 4833 c-48 -25 -83 -63 -101 -109 -19 -49 -14 -74 15 -74 14 0
22 8 26 28 14 68 70 122 127 122 71 0 118 -54 118 -135 0 -61 -13 -89 -127
-276 -69 -115 -93 -163 -86 -170 8 -8 57 -1 175 26 210 47 198 43 198 66 0 32
-26 33 -148 5 -65 -14 -120 -26 -124 -26 -18 0 -4 29 68 147 110 180 126 242
84 328 -37 75 -147 109 -225 68z"/>
<path d="M3035 4733 c-50 -10 -162 -35 -177 -40 -10 -2 -18 -13 -18 -24 0 -32
121 -553 130 -563 11 -11 161 18 236 45 92 34 145 112 130 193 -9 47 -49 93
-89 101 -55 12 -59 22 -26 67 34 48 39 113 12 159 -31 52 -117 79 -198 62z
m136 -97 c30 -49 25 -102 -12 -137 -33 -31 -112 -59 -165 -59 -37 0 -38 4 -68
138 -14 61 -14 63 8 77 29 19 153 34 189 22 16 -5 37 -24 48 -41z m68 -247
c26 -26 31 -38 31 -78 0 -68 -23 -93 -107 -119 -94 -29 -116 -32 -132 -23 -15
10 -61 194 -52 210 9 14 116 39 178 40 45 1 55 -3 82 -30z"/>
<path d="M6756 4324 c-73 -23 -140 -96 -166 -180 -24 -81 -25 -126 -3 -195 19
-59 63 -108 126 -141 49 -26 176 -31 215 -9 28 15 25 47 -3 43 -90 -13 -107
-13 -151 2 -60 19 -100 55 -125 110 -22 48 -24 89 -7 154 33 134 138 202 257
166 28 -8 66 -28 85 -44 64 -56 94 -21 34 38 -63 60 -173 84 -262 56z"/>
<path d="M7258 4210 c-36 -4 -56 -14 -83 -40 -38 -37 -44 -57 -18 -67 10 -4
23 2 37 19 41 50 92 61 151 33 106 -51 46 -201 -72 -179 -29 5 -33 4 -33 -15
0 -12 6 -21 15 -21 24 0 83 -59 90 -89 8 -35 -8 -75 -41 -106 -55 -51 -167
-24 -193 46 -20 53 -27 64 -45 67 -13 3 -16 -5 -16 -36 0 -107 143 -185 254
-138 18 8 46 31 62 52 24 30 29 47 29 90 0 44 -5 58 -27 81 -30 31 -27 44 16
58 63 22 92 119 53 179 -32 48 -106 75 -179 66z"/>
</g>
</svg>
